<svg width="207" height="71" viewBox="0 0 207 71" fill="none" xmlns="http://www.w3.org/2000/svg">
<rect width="207" height="71" fill="#F5F5F5"/>
<rect width="207" height="71" fill="#7836EA"/>
<path d="M72.092 41.964C70.508 41.436 69.308 40.944 68.492 40.488C67.676 40.032 67.268 39.66 67.268 39.372C67.268 39.108 67.292 38.832 67.34 38.544C67.388 38.256 67.436 37.836 67.484 37.284C67.532 36.732 67.556 35.94 67.556 34.908V27.528C67.58 26.448 67.64 25.404 67.736 24.396C67.832 23.388 68 22.584 68.24 21.984H66.944L65.18 19.572L65.432 18.996H70.04L72.056 21.804C71.792 22.548 71.576 23.46 71.408 24.54C71.264 25.62 71.192 26.832 71.192 28.176V28.248H72.164C72.74 28.248 73.304 28.068 73.856 27.708C74.408 27.324 75.02 26.484 75.692 25.188C76.196 24.204 76.556 23.496 76.772 23.064C76.988 22.632 77.168 22.272 77.312 21.984H75.908L74.036 19.572L74.324 18.996H78.968L81.02 21.768C80.876 22.104 80.744 22.416 80.624 22.704C80.504 22.992 80.348 23.352 80.156 23.784C79.988 24.192 79.712 24.792 79.328 25.584C78.8 26.688 78.272 27.624 77.744 28.392C77.24 29.136 76.7 29.76 76.124 30.264C77.564 30.96 78.584 31.632 79.184 32.28C79.808 32.928 80.12 33.48 80.12 33.936C80.12 34.464 80.108 35.076 80.084 35.772C80.084 36.444 80.072 37.092 80.048 37.716C80.048 38.34 80.048 38.832 80.048 39.192C80.048 39.6 80.18 39.936 80.444 40.2C80.708 40.464 81.152 40.776 81.776 41.136L81.236 42.144C79.628 41.448 78.368 40.848 77.456 40.344C76.544 39.816 76.088 39.264 76.088 38.688C76.088 38.352 76.088 37.896 76.088 37.32C76.112 36.744 76.124 36.156 76.124 35.556C76.148 34.932 76.16 34.428 76.16 34.044C76.16 32.748 75.296 31.848 73.568 31.344C73.184 31.224 72.764 31.128 72.308 31.056C71.852 30.984 71.48 30.936 71.192 30.912V35.7C71.192 36.732 71.156 37.56 71.084 38.184C71.036 38.784 71.012 39.252 71.012 39.588C71.012 39.996 71.528 40.44 72.56 40.92L72.092 41.964ZM90.6255 41.748C90.0495 41.748 89.3415 41.604 88.5015 41.316C87.6615 41.004 86.8215 40.608 85.9815 40.128C85.1655 39.624 84.4815 39.084 83.9295 38.508C83.3775 37.908 83.1015 37.32 83.1015 36.744C83.1015 36.168 83.1375 35.172 83.2095 33.756C83.3055 32.34 83.3535 30.648 83.3535 28.68C83.3535 25.56 85.0575 24 88.4655 24C88.9935 24 89.6055 24.168 90.3015 24.504C90.9975 24.816 91.6695 25.236 92.3175 25.764C92.9655 26.268 93.5055 26.796 93.9375 27.348C94.3695 27.9 94.5855 28.416 94.5855 28.896V31.848C94.5855 33.792 93.5055 34.764 91.3455 34.764C90.6735 34.764 89.9055 34.728 89.0415 34.656C88.1775 34.56 87.4095 34.452 86.7375 34.332C86.7135 35.124 86.6895 35.844 86.6655 36.492C86.6655 37.116 86.6655 37.476 86.6655 37.572C86.6655 37.956 86.7615 38.232 86.9535 38.4C87.1455 38.568 87.4935 38.652 87.9975 38.652C88.7415 38.652 89.5455 38.544 90.4095 38.328C91.2975 38.088 92.0895 37.74 92.7855 37.284H93.3255L95.2695 40.236C94.8135 40.668 94.1295 41.028 93.2175 41.316C92.3295 41.604 91.4655 41.748 90.6255 41.748ZM86.8455 29.832C86.8455 30.024 86.8335 30.312 86.8095 30.696C86.8095 31.08 86.8095 31.512 86.8095 31.992C87.5055 32.064 88.3095 32.1 89.2215 32.1C89.9175 32.1 90.3975 31.932 90.6615 31.596C90.9495 31.236 91.0935 30.696 91.0935 29.976V28.032C91.0935 27.768 91.0215 27.54 90.8775 27.348C90.7335 27.156 90.4215 27.06 89.9415 27.06C88.9815 27.06 88.2255 27.264 87.6735 27.672C87.1215 28.056 86.8455 28.776 86.8455 29.832ZM99.8975 37.968C99.0815 35.424 98.4455 33.336 97.9895 31.704C97.5335 30.048 97.3055 28.908 97.3055 28.284C97.3055 27.852 97.3415 27.516 97.4135 27.276H96.5495L94.8215 24.792L95.1095 24.216H99.7175L101.374 26.628L101.194 27.096C100.45 27.24 100.078 27.804 100.078 28.788C100.078 29.364 100.27 30.42 100.654 31.956C101.062 33.468 101.734 35.496 102.67 38.04C103.39 35.952 104.074 33.984 104.722 32.136C105.394 30.264 105.97 28.644 106.45 27.276H104.47L102.85 24.792L103.138 24.216H107.998L109.978 27.204C108.418 31.716 107.086 35.58 105.982 38.796C104.878 42.012 103.99 44.472 103.318 46.176C102.67 47.904 102.202 48.768 101.914 48.768C101.626 48.768 101.158 48.624 100.51 48.336C99.8855 48.072 99.2375 47.76 98.5655 47.4C97.9175 47.04 97.4135 46.74 97.0535 46.5L97.5935 45.528C97.8335 45.672 98.0855 45.804 98.3495 45.924C98.6135 46.068 98.8655 46.14 99.1055 46.14C99.2975 46.14 99.5015 45.984 99.7175 45.672C99.9335 45.384 100.198 44.844 100.51 44.052C100.846 43.284 101.266 42.18 101.77 40.74C101.818 40.62 101.854 40.5 101.878 40.38C101.446 40.044 101.038 39.66 100.654 39.228C100.294 38.796 100.042 38.376 99.8975 37.968ZM117.865 41.964C116.281 41.436 115.081 40.944 114.265 40.488C113.449 40.032 113.041 39.66 113.041 39.372C113.041 39.108 113.065 38.832 113.113 38.544C113.161 38.256 113.209 37.836 113.257 37.284C113.305 36.732 113.329 35.94 113.329 34.908V27.528C113.353 26.448 113.413 25.404 113.509 24.396C113.605 23.388 113.773 22.584 114.013 21.984H112.717L110.953 19.572L111.205 18.996H115.813L117.829 21.804C117.565 22.548 117.349 23.46 117.181 24.54C117.037 25.62 116.965 26.832 116.965 28.176V28.248H117.937C118.513 28.248 119.077 28.068 119.629 27.708C120.181 27.324 120.793 26.484 121.465 25.188C121.969 24.204 122.329 23.496 122.545 23.064C122.761 22.632 122.941 22.272 123.085 21.984H121.681L119.809 19.572L120.097 18.996H124.741L126.793 21.768C126.649 22.104 126.517 22.416 126.397 22.704C126.277 22.992 126.121 23.352 125.929 23.784C125.761 24.192 125.485 24.792 125.101 25.584C124.573 26.688 124.045 27.624 123.517 28.392C123.013 29.136 122.473 29.76 121.897 30.264C123.337 30.96 124.357 31.632 124.957 32.28C125.581 32.928 125.893 33.48 125.893 33.936C125.893 34.464 125.881 35.076 125.857 35.772C125.857 36.444 125.845 37.092 125.821 37.716C125.821 38.34 125.821 38.832 125.821 39.192C125.821 39.6 125.953 39.936 126.217 40.2C126.481 40.464 126.925 40.776 127.549 41.136L127.009 42.144C125.401 41.448 124.141 40.848 123.229 40.344C122.317 39.816 121.861 39.264 121.861 38.688C121.861 38.352 121.861 37.896 121.861 37.32C121.885 36.744 121.897 36.156 121.897 35.556C121.921 34.932 121.933 34.428 121.933 34.044C121.933 32.748 121.069 31.848 119.341 31.344C118.957 31.224 118.537 31.128 118.081 31.056C117.625 30.984 117.253 30.936 116.965 30.912V35.7C116.965 36.732 116.929 37.56 116.857 38.184C116.809 38.784 116.785 39.252 116.785 39.588C116.785 39.996 117.301 40.44 118.333 40.92L117.865 41.964ZM136.399 41.748C135.823 41.748 135.115 41.604 134.275 41.316C133.435 41.004 132.595 40.608 131.755 40.128C130.939 39.624 130.255 39.084 129.703 38.508C129.151 37.908 128.875 37.32 128.875 36.744C128.875 36.168 128.911 35.172 128.983 33.756C129.079 32.34 129.127 30.648 129.127 28.68C129.127 25.56 130.831 24 134.239 24C134.767 24 135.379 24.168 136.075 24.504C136.771 24.816 137.443 25.236 138.091 25.764C138.739 26.268 139.279 26.796 139.711 27.348C140.143 27.9 140.359 28.416 140.359 28.896V31.848C140.359 33.792 139.279 34.764 137.119 34.764C136.447 34.764 135.679 34.728 134.815 34.656C133.951 34.56 133.183 34.452 132.511 34.332C132.487 35.124 132.463 35.844 132.439 36.492C132.439 37.116 132.439 37.476 132.439 37.572C132.439 37.956 132.535 38.232 132.727 38.4C132.919 38.568 133.267 38.652 133.771 38.652C134.515 38.652 135.319 38.544 136.183 38.328C137.071 38.088 137.863 37.74 138.559 37.284H139.099L141.043 40.236C140.587 40.668 139.903 41.028 138.991 41.316C138.103 41.604 137.239 41.748 136.399 41.748ZM132.619 29.832C132.619 30.024 132.607 30.312 132.583 30.696C132.583 31.08 132.583 31.512 132.583 31.992C133.279 32.064 134.083 32.1 134.995 32.1C135.691 32.1 136.171 31.932 136.435 31.596C136.723 31.236 136.867 30.696 136.867 29.976V28.032C136.867 27.768 136.795 27.54 136.651 27.348C136.507 27.156 136.195 27.06 135.715 27.06C134.755 27.06 133.999 27.264 133.447 27.672C132.895 28.056 132.619 28.776 132.619 29.832ZM151.575 41.676C150.783 41.676 150.039 41.568 149.343 41.352C148.671 41.136 148.083 40.884 147.579 40.596V43.404C147.579 44.268 147.543 45.024 147.471 45.672C147.399 46.344 147.363 46.848 147.363 47.184C147.363 47.424 147.447 47.604 147.615 47.724C147.807 47.868 148.263 48.132 148.983 48.516L148.551 49.488C147.015 48.912 145.827 48.384 144.987 47.904C144.171 47.448 143.763 47.028 143.763 46.644C143.763 46.308 143.799 45.78 143.871 45.06C143.967 44.364 144.015 43.68 144.015 43.008V30.984C144.015 30.528 144.027 29.928 144.051 29.184C144.099 28.44 144.183 27.804 144.303 27.276H142.971L141.099 24.792L141.351 24.216H144.735C144.831 24.216 145.035 24.384 145.347 24.72C145.659 25.032 145.983 25.392 146.319 25.8C146.679 25.248 147.195 24.804 147.867 24.468C148.563 24.132 149.307 23.964 150.099 23.964H150.783C151.311 23.964 151.887 24.18 152.511 24.612C153.135 25.02 153.723 25.536 154.275 26.16C154.827 26.76 155.283 27.36 155.643 27.96C156.003 28.56 156.183 29.052 156.183 29.436C156.183 30.108 156.171 31.056 156.147 32.28C156.123 33.48 156.111 34.908 156.111 36.564C156.111 38.124 155.703 39.372 154.887 40.308C154.071 41.22 152.967 41.676 151.575 41.676ZM151.647 27.312C150.447 27.312 149.487 27.492 148.767 27.852C148.047 28.188 147.651 28.884 147.579 29.94C147.579 30.204 147.579 30.432 147.579 30.624V38.544C148.011 38.64 148.467 38.688 148.947 38.688C150.243 38.688 151.167 38.388 151.719 37.788C152.271 37.188 152.547 36.348 152.547 35.268C152.547 34.5 152.559 33.696 152.583 32.856C152.607 32.016 152.619 31.224 152.619 30.48C152.643 29.736 152.655 29.124 152.655 28.644C152.655 28.308 152.607 28.008 152.511 27.744C152.415 27.456 152.127 27.312 151.647 27.312ZM166.422 41.748C165.846 41.748 165.138 41.604 164.298 41.316C163.458 41.004 162.618 40.608 161.778 40.128C160.962 39.624 160.278 39.084 159.726 38.508C159.174 37.908 158.898 37.32 158.898 36.744C158.898 36.168 158.934 35.172 159.006 33.756C159.102 32.34 159.15 30.648 159.15 28.68C159.15 25.56 160.854 24 164.262 24C164.79 24 165.402 24.168 166.098 24.504C166.794 24.816 167.466 25.236 168.114 25.764C168.762 26.268 169.302 26.796 169.734 27.348C170.166 27.9 170.382 28.416 170.382 28.896V31.848C170.382 33.792 169.302 34.764 167.142 34.764C166.47 34.764 165.702 34.728 164.838 34.656C163.974 34.56 163.206 34.452 162.534 34.332C162.51 35.124 162.486 35.844 162.462 36.492C162.462 37.116 162.462 37.476 162.462 37.572C162.462 37.956 162.558 38.232 162.75 38.4C162.942 38.568 163.29 38.652 163.794 38.652C164.538 38.652 165.342 38.544 166.206 38.328C167.094 38.088 167.886 37.74 168.582 37.284H169.122L171.066 40.236C170.61 40.668 169.926 41.028 169.014 41.316C168.126 41.604 167.262 41.748 166.422 41.748ZM162.642 29.832C162.642 30.024 162.63 30.312 162.606 30.696C162.606 31.08 162.606 31.512 162.606 31.992C163.302 32.064 164.106 32.1 165.018 32.1C165.714 32.1 166.194 31.932 166.458 31.596C166.746 31.236 166.89 30.696 166.89 29.976V28.032C166.89 27.768 166.818 27.54 166.674 27.348C166.53 27.156 166.218 27.06 165.738 27.06C164.778 27.06 164.022 27.264 163.47 27.672C162.918 28.056 162.642 28.776 162.642 29.832ZM180.59 41.748C180.014 41.748 179.306 41.604 178.466 41.316C177.626 41.004 176.786 40.608 175.946 40.128C175.13 39.624 174.446 39.084 173.894 38.508C173.342 37.908 173.066 37.32 173.066 36.744C173.066 36.168 173.102 35.172 173.174 33.756C173.27 32.34 173.318 30.648 173.318 28.68C173.318 25.56 175.022 24 178.43 24C178.958 24 179.57 24.168 180.266 24.504C180.962 24.816 181.634 25.236 182.282 25.764C182.93 26.268 183.47 26.796 183.902 27.348C184.334 27.9 184.55 28.416 184.55 28.896V31.848C184.55 33.792 183.47 34.764 181.31 34.764C180.638 34.764 179.87 34.728 179.006 34.656C178.142 34.56 177.374 34.452 176.702 34.332C176.678 35.124 176.654 35.844 176.63 36.492C176.63 37.116 176.63 37.476 176.63 37.572C176.63 37.956 176.726 38.232 176.918 38.4C177.11 38.568 177.458 38.652 177.962 38.652C178.706 38.652 179.51 38.544 180.374 38.328C181.262 38.088 182.054 37.74 182.75 37.284H183.29L185.234 40.236C184.778 40.668 184.094 41.028 183.182 41.316C182.294 41.604 181.43 41.748 180.59 41.748ZM176.81 29.832C176.81 30.024 176.798 30.312 176.774 30.696C176.774 31.08 176.774 31.512 176.774 31.992C177.47 32.064 178.274 32.1 179.186 32.1C179.882 32.1 180.362 31.932 180.626 31.596C180.914 31.236 181.058 30.696 181.058 29.976V28.032C181.058 27.768 180.986 27.54 180.842 27.348C180.698 27.156 180.386 27.06 179.906 27.06C178.946 27.06 178.19 27.264 177.638 27.672C177.086 28.056 176.81 28.776 176.81 29.832ZM193.858 42.324C191.794 41.652 190.306 41.076 189.394 40.596C188.482 40.092 188.026 39.732 188.026 39.516C188.026 39.252 188.062 38.796 188.134 38.148C188.23 37.5 188.278 36.492 188.278 35.124V30.66C188.278 30.18 188.302 29.616 188.35 28.968C188.398 28.296 188.47 27.732 188.566 27.276H187.234L185.362 24.792L185.614 24.216H188.998C189.118 24.216 189.334 24.396 189.646 24.756C189.982 25.092 190.318 25.464 190.654 25.872C191.038 25.248 191.566 24.792 192.238 24.504C192.934 24.216 193.666 24.072 194.434 24.072C194.818 24.072 195.106 24.096 195.298 24.144L197.098 26.664L196.81 27.096C195.13 27.072 193.882 27.396 193.066 28.068C192.25 28.74 191.842 29.976 191.842 31.776V35.628C191.842 36.828 191.806 37.764 191.734 38.436C191.686 39.084 191.662 39.516 191.662 39.732C191.662 39.876 191.71 40.008 191.806 40.128C191.902 40.224 192.13 40.344 192.49 40.488C192.874 40.632 193.474 40.872 194.29 41.208L193.858 42.324Z" fill="black"/>
<path d="M67.1289 55.8984V59.3164H67.4912V60H66.1309V59.3164H66.4385V56.5547L64.7227 59.3164H63.8887L62.1729 56.5547V59.3164H62.4805V60H61.1201V59.3164H61.4824V55.8984H61.1406V55.2148H62.1729L64.3057 58.6465L66.4385 55.2148H67.4707V55.8984H67.1289ZM72.5908 56.7461L72.5703 56.7119C72.502 56.598 72.4176 56.4909 72.3174 56.3906C71.9574 56.0352 71.5221 55.8574 71.0117 55.8574C70.5059 55.8574 70.0729 56.0374 69.7129 56.3975C69.3529 56.7529 69.1729 57.1813 69.1729 57.6826C69.1729 58.1885 69.3529 58.6191 69.7129 58.9746C70.0729 59.3301 70.5059 59.5078 71.0117 59.5078C71.5221 59.5078 71.9574 59.3301 72.3174 58.9746C72.4222 58.8698 72.5133 58.7581 72.5908 58.6396V56.7461ZM72.5908 59.6104C72.1442 59.9795 71.6178 60.1641 71.0117 60.1641C70.3236 60.1641 69.7357 59.9202 69.248 59.4326C68.7604 58.9495 68.5166 58.3662 68.5166 57.6826C68.5166 56.999 68.7604 56.4134 69.248 55.9258C69.7357 55.4427 70.3236 55.2012 71.0117 55.2012C71.6178 55.2012 72.1442 55.3857 72.5908 55.7549V55.2148H73.6162V55.8984H73.2744V59.3164H73.6162V60H72.5908V59.6104ZM75.667 59.3164H76.0088V60H74.6416V59.3164H74.9834V55.8984H74.6416V55.2148H78.7432V56.9443H78.1279C78.1507 56.3656 77.9775 56.0169 77.6084 55.8984H75.667V59.3164ZM83.501 56.7461L83.4805 56.7119C83.4121 56.598 83.3278 56.4909 83.2275 56.3906C82.8675 56.0352 82.4323 55.8574 81.9219 55.8574C81.416 55.8574 80.9831 56.0374 80.623 56.3975C80.263 56.7529 80.083 57.1813 80.083 57.6826C80.083 58.1885 80.263 58.6191 80.623 58.9746C80.9831 59.3301 81.416 59.5078 81.9219 59.5078C82.4323 59.5078 82.8675 59.3301 83.2275 58.9746C83.3324 58.8698 83.4235 58.7581 83.501 58.6396V56.7461ZM83.501 59.6104C83.0544 59.9795 82.528 60.1641 81.9219 60.1641C81.2337 60.1641 80.6458 59.9202 80.1582 59.4326C79.6706 58.9495 79.4268 58.3662 79.4268 57.6826C79.4268 56.999 79.6706 56.4134 80.1582 55.9258C80.6458 55.4427 81.2337 55.2012 81.9219 55.2012C82.528 55.2012 83.0544 55.3857 83.501 55.7549V55.2148H84.5264V55.8984H84.1846V59.3164H84.5264V60H83.501V59.6104ZM85.4971 59.4053C85.3786 59.305 85.3011 59.1751 85.2646 59.0156C85.2282 58.8333 85.2624 58.6647 85.3672 58.5098C85.4674 58.3503 85.611 58.25 85.7979 58.209C85.9801 58.1725 86.1533 58.2067 86.3174 58.3115C86.4723 58.4163 86.568 58.5599 86.6045 58.7422C86.6455 58.9245 86.6136 59.0954 86.5088 59.2549C86.4951 59.2731 86.4814 59.2913 86.4678 59.3096C86.682 59.4098 86.9235 59.46 87.1924 59.46C87.5615 59.46 87.876 59.3688 88.1357 59.1865C88.4001 59.0042 88.5322 58.7832 88.5322 58.5234C88.5322 58.3047 88.3955 58.1133 88.1221 57.9492H86.6182V57.2656H88.1699C88.4115 57.0879 88.5322 56.8737 88.5322 56.623C88.5322 56.3633 88.4001 56.1423 88.1357 55.96C87.876 55.7777 87.5615 55.6865 87.1924 55.6865C86.9235 55.6865 86.682 55.7344 86.4678 55.8301C86.5407 55.9167 86.5885 56.0169 86.6113 56.1309C86.6523 56.3132 86.6204 56.484 86.5156 56.6436C86.4108 56.8031 86.2673 56.901 86.085 56.9375C85.8936 56.9785 85.7204 56.9466 85.5654 56.8418C85.4105 56.737 85.3125 56.5911 85.2715 56.4043C85.235 56.222 85.2692 56.0534 85.374 55.8984C85.3877 55.8757 85.4014 55.8551 85.415 55.8369C85.488 55.723 85.6042 55.6068 85.7637 55.4883C86.1556 55.1921 86.6318 55.0439 87.1924 55.0439C87.7484 55.0439 88.2246 55.1921 88.6211 55.4883C89.0176 55.7845 89.2158 56.1423 89.2158 56.5615C89.2158 56.9489 89.0404 57.2861 88.6895 57.5732C89.0404 57.8604 89.2158 58.1976 89.2158 58.585C89.2158 59.0042 89.0176 59.362 88.6211 59.6582C88.2246 59.9544 87.7484 60.1025 87.1924 60.1025C86.6318 60.1025 86.1556 59.9544 85.7637 59.6582C85.6452 59.5716 85.5563 59.4873 85.4971 59.4053ZM95.0264 59.3164H95.3682V60H94.001V59.3164H94.3428V55.9941L91.4717 60H90.2412V59.3164H90.583V55.8984H90.2412V55.2148H91.6084V55.8984H91.2666V59.1045L94.0625 55.2148L94.0693 55.2217V55.2148H95.3682V55.8984H95.0264V59.3164ZM101.527 59.3164H101.869V60H100.495V59.3164H100.837V57.9492H97.7607V59.3164H98.1025V60H96.7354V59.3164H97.0771V55.8984H96.7354V55.2148H98.1025V55.8984H97.7607V57.2656H100.837V55.8984H100.495V55.2148H101.869V55.8984H101.527V59.3164ZM107.741 59.3164H110.817V55.8984H110.476V55.2148H111.85V55.8984H111.508V59.3164H112.185V61.0459H111.569C111.592 60.4671 111.421 60.1185 111.057 60H106.716V59.3164H107.058V55.8984H106.716V55.2148H108.083V55.8984H107.741V59.3164ZM117.995 59.3164H118.337V60H116.97V59.3164H117.312V55.9941L114.44 60H113.21V59.3164H113.552V55.8984H113.21V55.2148H114.577V55.8984H114.235V59.1045L117.031 55.2148L117.038 55.2217V55.2148H118.337V55.8984H117.995V59.3164ZM124.1 56.623V58.5645C124.173 58.6784 124.259 58.7878 124.359 58.8926C124.719 59.248 125.155 59.4258 125.665 59.4258C126.171 59.4258 126.604 59.2458 126.964 58.8857C127.324 58.5303 127.504 58.1019 127.504 57.6006C127.504 57.0947 127.324 56.6641 126.964 56.3086C126.604 55.9531 126.171 55.7754 125.665 55.7754C125.155 55.7754 124.719 55.9531 124.359 56.3086C124.259 56.4089 124.173 56.5137 124.1 56.623ZM123.416 58.5781V56.6162C123.343 56.5068 123.259 56.4043 123.163 56.3086C122.803 55.9531 122.368 55.7754 121.857 55.7754C121.352 55.7754 120.919 55.9531 120.559 56.3086C120.199 56.6641 120.019 57.0947 120.019 57.6006C120.019 58.1019 120.199 58.5303 120.559 58.8857C120.919 59.2458 121.352 59.4258 121.857 59.4258C122.368 59.4258 122.803 59.248 123.163 58.8926C123.259 58.7923 123.343 58.6875 123.416 58.5781ZM124.1 59.542V61.3672H124.455V62.0508H123.088V61.3672H123.416V59.5488C122.969 59.9043 122.45 60.082 121.857 60.082C121.169 60.082 120.581 59.8405 120.094 59.3574C119.606 58.8698 119.362 58.2842 119.362 57.6006C119.362 56.917 119.606 56.3337 120.094 55.8506C120.581 55.363 121.169 55.1191 121.857 55.1191C122.454 55.1191 122.976 55.2992 123.423 55.6592V53.8477H123.074V53.1641H124.106L124.1 55.6592C124.546 55.2992 125.068 55.1191 125.665 55.1191C126.353 55.1191 126.941 55.363 127.429 55.8506C127.916 56.3337 128.16 56.917 128.16 57.6006C128.16 58.2842 127.916 58.8698 127.429 59.3574C126.941 59.8405 126.353 60.082 125.665 60.082C125.063 60.082 124.542 59.902 124.1 59.542ZM130.484 56.3086C130.384 56.4089 130.295 56.5182 130.218 56.6367V58.5713L130.225 58.5645C130.298 58.6784 130.384 58.7878 130.484 58.8926C130.844 59.248 131.28 59.4258 131.79 59.4258C132.296 59.4258 132.729 59.2458 133.089 58.8857C133.449 58.5303 133.629 58.1019 133.629 57.6006C133.629 57.0947 133.449 56.6641 133.089 56.3086C132.729 55.9531 132.296 55.7754 131.79 55.7754C131.28 55.7754 130.844 55.9531 130.484 56.3086ZM130.218 59.5352V61.3672H130.56V62.0508H129.192V61.3672H129.534V55.8984H129.192V55.2148H130.218V55.6729C130.664 55.3037 131.188 55.1191 131.79 55.1191C132.478 55.1191 133.066 55.363 133.554 55.8506C134.041 56.3337 134.285 56.917 134.285 57.6006C134.285 58.2842 134.041 58.8698 133.554 59.3574C133.066 59.8405 132.478 60.082 131.79 60.082C131.188 60.082 130.664 59.8997 130.218 59.5352ZM138.168 55.2559C138.564 55.3652 138.92 55.5749 139.234 55.8848C139.722 56.3724 139.966 56.958 139.966 57.6416C139.966 58.3252 139.722 58.9085 139.234 59.3916C138.801 59.8245 138.291 60.0661 137.703 60.1162C137.626 60.1208 137.548 60.123 137.471 60.123C136.783 60.123 136.195 59.8815 135.707 59.3984C135.219 58.9108 134.976 58.3252 134.976 57.6416C134.976 56.958 135.219 56.3747 135.707 55.8916C136.195 55.404 136.783 55.1602 137.471 55.1602C137.717 55.1602 137.949 55.1898 138.168 55.249V55.2559ZM137.703 59.4531C138.109 59.4076 138.464 59.2344 138.77 58.9336C139.13 58.5781 139.31 58.1475 139.31 57.6416C139.31 57.1403 139.13 56.7096 138.77 56.3496C138.528 56.1126 138.257 55.9531 137.956 55.8711V55.8779C137.801 55.8369 137.639 55.8164 137.471 55.8164C136.965 55.8164 136.532 55.9964 136.172 56.3564C135.812 56.7119 135.632 57.1403 135.632 57.6416C135.632 58.1475 135.812 58.5781 136.172 58.9336C136.532 59.2891 136.965 59.4668 137.471 59.4668C137.548 59.4668 137.626 59.4622 137.703 59.4531ZM143.842 57.2656C144.138 57.2793 144.359 57.2132 144.505 57.0674C144.655 56.9215 144.73 56.762 144.73 56.5889C144.73 56.4202 144.658 56.2653 144.512 56.124C144.366 55.9827 144.149 55.9098 143.862 55.9053H142.017V57.2656H143.842ZM144.313 59.3164C144.55 59.3164 144.735 59.2435 144.867 59.0977C145.004 58.9518 145.072 58.7946 145.072 58.626C145.072 58.4574 145.006 58.2979 144.874 58.1475C144.746 58.0062 144.546 57.9401 144.272 57.9492C144.222 57.9538 144.17 57.9561 144.115 57.9561C144.065 57.9561 144.017 57.9538 143.972 57.9492H142.017V59.3164H144.313ZM144.389 60H140.991V59.3164H141.333V55.9053H140.991V55.2217H144.115C144.493 55.2217 144.815 55.3561 145.079 55.625C145.348 55.8893 145.482 56.2106 145.482 56.5889C145.482 56.9215 145.38 57.2109 145.175 57.457C145.261 57.5117 145.346 57.5778 145.428 57.6553C145.692 57.9242 145.824 58.2477 145.824 58.626C145.824 59.0042 145.69 59.3278 145.421 59.5967C145.157 59.861 144.812 59.9954 144.389 60ZM147.882 57.9492V59.3164H150.179C150.416 59.3164 150.6 59.2435 150.732 59.0977C150.869 58.9518 150.938 58.7946 150.938 58.626C150.938 58.4574 150.871 58.3001 150.739 58.1543C150.607 58.0039 150.397 57.9355 150.11 57.9492H147.882ZM148.224 55.2148V55.8984H147.882V57.2656H150.233C150.671 57.2611 151.022 57.3932 151.286 57.6621C151.555 57.9264 151.689 58.2477 151.689 58.626C151.689 59.0042 151.555 59.3278 151.286 59.5967C151.022 59.861 150.678 59.9954 150.254 60H146.856V59.3164H147.198V55.8984H146.856V55.2148H148.224ZM153.398 55.8984H153.74V55.2148H152.366V55.8984H152.708V59.3164H152.366V60H153.74V59.3164H153.398V55.8984ZM154.772 60V59.3164H155.75L157.329 57.6484L155.675 55.8984H154.772V55.2148H156.837V55.8984H156.625L157.808 57.1494L158.983 55.8984H158.771V55.2148H160.836V55.8984H159.934L158.279 57.6484L159.858 59.3164H160.836V60H158.771V59.3164H158.915L157.808 58.1475L156.7 59.3164H156.837V60H154.772ZM166.366 57.2383V59.3164H166.708V60H165.341V59.3164H165.683V55.8984H165.341V55.2148H166.708V55.8984H166.366V56.582H167.111C167.13 56.4954 167.152 56.402 167.18 56.3018C167.262 56.0238 167.36 55.8027 167.474 55.6387C167.592 55.4746 167.754 55.3242 167.959 55.1875C168.164 55.0462 168.403 54.9437 168.677 54.8799C168.859 54.8434 169.032 54.8776 169.196 54.9824C169.351 55.0872 169.447 55.2308 169.483 55.4131C169.524 55.5954 169.493 55.7663 169.388 55.9258C169.283 56.0853 169.139 56.1833 168.957 56.2197C168.766 56.2607 168.592 56.2288 168.438 56.124C168.292 56.0238 168.196 55.887 168.15 55.7139C168.064 55.7503 167.977 55.8232 167.891 55.9326C167.777 56.0785 167.697 56.2949 167.651 56.582H168.13C168.818 56.582 169.406 56.8236 169.894 57.3066C170.381 57.7943 170.625 58.3799 170.625 59.0635V59.3164H170.933V60H169.47V59.3164H169.969V59.0635C169.969 58.5622 169.789 58.1338 169.429 57.7783C169.069 57.4183 168.636 57.2383 168.13 57.2383H166.366ZM172.977 59.4258C172.954 59.5671 172.89 59.6901 172.785 59.7949C172.648 59.9271 172.487 59.9932 172.3 59.9932C172.108 59.9932 171.947 59.9271 171.814 59.7949C171.682 59.6628 171.616 59.501 171.616 59.3096C171.616 59.1227 171.682 58.9632 171.814 58.8311C171.947 58.6943 172.108 58.626 172.3 58.626C172.364 58.626 172.423 58.6328 172.478 58.6465L173.223 55.8984H172.662V55.2148H177.085V55.8984H176.743V59.3164H177.085V60H175.677V59.3164H176.06V55.8984H173.934L172.977 59.4258ZM183.087 59.4053C183.164 59.4053 183.242 59.4007 183.319 59.3916C183.725 59.346 184.08 59.1729 184.386 58.8721C184.746 58.5166 184.926 58.0859 184.926 57.5801C184.926 57.0788 184.746 56.6481 184.386 56.2881C184.144 56.0511 183.873 55.8916 183.572 55.8096V55.8164C183.417 55.7754 183.256 55.7549 183.087 55.7549C182.581 55.7549 182.148 55.9349 181.788 56.2949C181.428 56.6504 181.248 57.0788 181.248 57.5801C181.248 58.0859 181.428 58.5166 181.788 58.8721C182.148 59.2275 182.581 59.4053 183.087 59.4053ZM179.478 57.9492V59.3164H179.819V60H178.452V59.3164H178.794V55.8984H178.452V55.2148H179.819V55.8984H179.478V57.2656H180.612C180.676 56.7142 180.913 56.2334 181.323 55.8232C181.811 55.3402 182.399 55.0986 183.087 55.0986C183.333 55.0986 183.565 55.1283 183.784 55.1875V55.1943C184.181 55.3037 184.536 55.5133 184.851 55.8232C185.338 56.3109 185.582 56.8965 185.582 57.5801C185.582 58.2637 185.338 58.847 184.851 59.3301C184.418 59.763 183.907 60.0046 183.319 60.0547L183.087 60.0615C182.399 60.0615 181.811 59.8177 181.323 59.3301C180.927 58.9382 180.692 58.4779 180.619 57.9492H179.478ZM191.399 59.3164H191.741V60H190.374V59.3164H190.716V58.6465H189.451C188.763 58.6465 188.175 58.4049 187.688 57.9219C187.2 57.4342 186.956 56.8509 186.956 56.1719V55.8984H186.614V55.2148H187.981V55.8984H187.64V56.1719C187.653 56.7142 187.824 57.1403 188.152 57.4502C188.512 57.8102 188.943 57.9766 189.444 57.9492H190.716V55.8984H190.374V55.2148H191.741V55.8984H191.399V59.3164ZM197.066 57.2656C196.998 56.9238 196.832 56.6185 196.567 56.3496C196.207 55.9941 195.772 55.8164 195.262 55.8164C194.756 55.8164 194.323 55.9941 193.963 56.3496C193.699 56.6185 193.53 56.9238 193.457 57.2656H197.066ZM193.443 57.9492C193.507 58.3229 193.68 58.651 193.963 58.9336C194.323 59.2891 194.756 59.4668 195.262 59.4668C195.772 59.4668 196.207 59.2891 196.567 58.9336C196.672 58.8288 196.763 58.7171 196.841 58.5986L197.312 59.0703C197.23 59.1797 197.137 59.2868 197.032 59.3916C196.545 59.8792 195.954 60.123 195.262 60.123C194.574 60.123 193.986 59.8815 193.498 59.3984C193.01 58.9108 192.767 58.3252 192.767 57.6416C192.767 56.958 193.01 56.3747 193.498 55.8916C193.986 55.404 194.574 55.1602 195.262 55.1602C195.954 55.1602 196.545 55.404 197.032 55.8916C197.52 56.3747 197.764 56.958 197.764 57.6416C197.764 57.7601 197.761 57.8626 197.757 57.9492H193.443ZM203.581 59.3164H203.923V60H202.556V59.3164H202.897V55.9941L200.026 60H198.796V59.3164H199.138V55.8984H198.796V55.2148H200.163V55.8984H199.821V59.1045L202.617 55.2148L202.624 55.2217V55.2148H203.923V55.8984H203.581V59.3164ZM199.555 53.1436C199.555 53.1117 199.557 53.082 199.562 53.0547H199.575C199.607 52.9453 199.666 52.8473 199.753 52.7607C199.885 52.6286 200.045 52.5625 200.231 52.5625C200.423 52.5625 200.585 52.6309 200.717 52.7676C200.849 52.8997 200.915 53.0592 200.915 53.2461C200.915 53.4375 200.849 53.5993 200.717 53.7314C200.699 53.7497 200.678 53.7679 200.655 53.7861C200.664 53.7952 200.676 53.8021 200.689 53.8066C200.885 53.9844 201.127 54.0732 201.414 54.0732C201.697 54.0732 201.938 53.9844 202.139 53.8066C202.148 53.8021 202.157 53.7952 202.166 53.7861C202.143 53.7679 202.123 53.7497 202.104 53.7314C201.968 53.5993 201.899 53.4375 201.899 53.2461C201.899 53.0592 201.965 52.8997 202.098 52.7676C202.234 52.6309 202.396 52.5625 202.583 52.5625C202.774 52.5625 202.936 52.6286 203.068 52.7607C203.187 52.8838 203.253 53.0273 203.267 53.1914V53.2461C203.267 53.3008 203.262 53.3532 203.253 53.4033C203.198 53.7542 203.023 54.0596 202.727 54.3193C202.362 54.6383 201.924 54.7979 201.414 54.7979C200.899 54.7979 200.462 54.6383 200.102 54.3193C199.819 54.0732 199.646 53.7884 199.582 53.4648C199.559 53.3965 199.548 53.3236 199.548 53.2461C199.548 53.2096 199.55 53.1755 199.555 53.1436Z" fill="white"/>
<path d="M39 24L39.6735 26.0729H41.8532L40.0898 27.3541L40.7634 29.4271L39 28.1459L37.2366 29.4271L37.9102 27.3541L36.1468 26.0729H38.3265L39 24Z" fill="#310E6C"/>
<path d="M3.00636 23.8617C3.00636 19.7075 3.00636 15.5502 3.00636 11.396C3.00636 9.55637 3.84859 8.48616 5.63438 8.03972C13.5565 6.06078 21.4785 4.06602 29.4101 2.12191C30.0845 1.95726 30.8666 1.96043 31.541 2.12508C39.4916 4.07869 47.4295 6.07345 55.3674 8.06505C57.055 8.48934 57.9036 9.59121 57.9036 11.32C57.9036 19.3244 57.9004 27.332 57.9036 35.3363C57.9067 40.8932 56.0861 45.8706 53.0655 50.4522C50.0132 55.0877 46.0933 58.9062 41.7301 62.2942C38.7317 64.6246 35.5559 66.6858 32.2218 68.5064C31.0281 69.1587 29.8945 69.1682 28.6977 68.5128C22.3556 65.0267 16.5834 60.8028 11.7073 55.4233C8.11992 51.4686 5.29559 47.058 3.86759 41.8462C3.28499 39.7217 2.99686 37.5559 3.00003 35.3522C3.00636 31.5241 3.00636 27.6929 3.00636 23.8617ZM51.8148 25.5272C51.8148 21.6959 51.8053 17.8647 51.8274 14.0335C51.8306 13.5807 51.6755 13.4129 51.2575 13.3084C44.4626 11.624 37.6709 9.92684 30.8729 8.24553C30.6101 8.18221 30.3061 8.17904 30.0433 8.24236C23.2485 9.92683 16.4536 11.6303 9.65874 13.3116C9.1933 13.4256 9.08248 13.6282 9.08248 14.0842C9.09831 21.1355 9.08248 28.19 9.10464 35.2414C9.10781 36.3052 9.1933 37.3786 9.36428 38.4266C10.0102 42.3782 11.8213 45.8104 14.2404 48.9387C18.5719 54.5462 24.0812 58.7732 30.151 62.3163C30.322 62.4177 30.6734 62.3797 30.8539 62.2688C32.6112 61.1638 34.3938 60.0936 36.0815 58.8936C40.4731 55.7716 44.4373 52.1937 47.5403 47.7482C50.2158 43.9107 51.8718 39.728 51.8211 34.9659C51.7895 31.8154 51.8148 28.6713 51.8148 25.5272Z" fill="url(#paint0_angular_31_43)"/>
<path d="M14.0039 27.378C14.0039 24.8359 14.0039 22.2919 14.0039 19.7498C14.0039 18.624 14.5193 17.9691 15.6121 17.6959C20.4599 16.485 25.3078 15.2643 30.1614 14.0746C30.5741 13.9738 31.0527 13.9758 31.4654 14.0765C36.3307 15.272 41.1882 16.4927 46.0457 17.7114C47.0784 17.9711 47.5977 18.6454 47.5977 19.7033C47.5977 24.6015 47.5958 29.5016 47.5977 34.3999C47.5996 37.8003 46.4855 40.8462 44.6371 43.6499C42.7692 46.4865 40.3705 48.8232 37.7005 50.8964C35.8656 52.3225 33.9222 53.5839 31.882 54.698C31.1515 55.0971 30.4578 55.1029 29.7254 54.7018C25.8445 52.5686 22.3122 49.9838 19.3284 46.6919C17.1331 44.2718 15.4048 41.5728 14.5309 38.3835C14.1744 37.0834 13.9981 35.7581 14 34.4095C14.0039 32.067 14.0039 29.7225 14.0039 27.378ZM43.8717 28.3972C43.8717 26.0527 43.8659 23.7083 43.8795 21.3638C43.8814 21.0867 43.7865 20.984 43.5307 20.9201C39.3727 19.8893 35.2165 18.8508 31.0566 17.8219C30.8957 17.7831 30.7097 17.7812 30.5489 17.82C26.3909 18.8507 22.2328 19.8932 18.0748 20.922C17.7899 20.9918 17.7221 21.1158 17.7221 21.3948C17.7318 25.7098 17.7221 30.0267 17.7357 34.3417C17.7376 34.9927 17.7899 35.6496 17.8946 36.2909C18.2898 38.709 19.3981 40.8094 20.8784 42.7237C23.529 46.1552 26.9004 48.7418 30.6148 50.91C30.7194 50.972 30.9345 50.9487 31.0449 50.8809C32.1203 50.2047 33.2112 49.5498 34.2439 48.8155C36.9313 46.905 39.3572 44.7155 41.256 41.9952C42.8933 39.6468 43.9066 37.0873 43.8756 34.1732C43.8562 32.2453 43.8717 30.3212 43.8717 28.3972Z" fill="url(#paint1_linear_31_43)"/>
<defs>
<radialGradient id="paint0_angular_31_43" cx="0" cy="0" r="1" gradientUnits="userSpaceOnUse" gradientTransform="translate(30.4518 35.5) rotate(90) scale(33.5 27.4518)">
<stop stop-color="#3D1287"/>
<stop offset="0.69" stop-color="#0F0421" stop-opacity="0.9"/>
</radialGradient>
<linearGradient id="paint1_linear_31_43" x1="30.7989" y1="14" x2="30.7989" y2="55" gradientUnits="userSpaceOnUse">
<stop stop-color="#0F0421"/>
<stop offset="1" stop-color="#3D1287"/>
</linearGradient>
</defs>
</svg>
